<svg width="83" height="62" viewBox="0 0 83 62" fill="none" xmlns="http://www.w3.org/2000/svg">
<g filter="url(#filter0_d_4_42)">
<path d="M11.8924 23.7113L7.33378 7.71982C7.0984 6.89409 7.95602 6.18106 8.73584 6.55413L23.8385 13.7792C24.6416 14.1634 24.5812 15.3159 23.7425 15.6131L17.5312 17.8139C17.3056 17.8938 17.1164 18.0511 16.9978 18.2574L13.7318 23.9361C13.2908 24.7029 12.1347 24.5616 11.8924 23.7113Z" fill="#DC6803"/>
<path d="M6.85075 7.8544C6.49768 6.61583 7.78362 5.54674 8.95335 6.10628L24.0564 13.3314C25.2607 13.9078 25.1699 15.6359 23.9119 16.0816L17.7012 18.2825C17.5885 18.3224 17.4939 18.4012 17.4346 18.5041L14.1679 24.1829C13.5065 25.3329 11.7731 25.1214 11.4093 23.8463L6.85075 7.8544Z" stroke="#DC6803"/>
</g>
<path d="M42 23H63C73.4934 23 82 31.5066 82 42C82 52.4934 73.4934 61 63 61H42C31.5066 61 23 52.4934 23 42C23 31.5066 31.5066 23 42 23Z" fill="#DC6803"/>
<path d="M42 23H63C73.4934 23 82 31.5066 82 42C82 52.4934 73.4934 61 63 61H42C31.5066 61 23 52.4934 23 42C23 31.5066 31.5066 23 42 23Z" stroke="#DC6803" stroke-width="2"/>
<path d="M46.48 34.8H48.256L43.968 41.392V46H42.384V41.392L38.096 34.8H39.872L43.184 40L46.48 34.8ZM47.6598 41.952C47.6598 39.616 49.3398 37.664 51.8678 37.664C54.3638 37.664 56.0598 39.616 56.0598 41.952C56.0598 44.304 54.3638 46.224 51.8678 46.224C49.3398 46.224 47.6598 44.304 47.6598 41.952ZM54.4918 41.952C54.4918 40.24 53.4518 39.056 51.8678 39.056C51.0838 39.056 50.4438 39.328 49.9478 39.872C49.4678 40.4 49.2278 41.104 49.2278 41.952C49.2278 42.8 49.4678 43.488 49.9478 44.032C50.4438 44.56 51.0838 44.832 51.8678 44.832C52.6518 44.832 53.2918 44.56 53.7718 44.032C54.2518 43.488 54.4918 42.8 54.4918 41.952ZM58.091 42.96V37.888H59.595V42.848C59.595 44.144 60.331 44.832 61.627 44.832C62.923 44.832 63.659 44.144 63.659 42.848V37.888H65.163V42.96C65.163 43.952 64.843 44.752 64.203 45.344C63.563 45.936 62.699 46.224 61.627 46.224C59.515 46.224 58.091 44.912 58.091 42.96Z" fill="white"/>
<defs>
<filter id="filter0_d_4_42" x="4.28796" y="4.45428" width="23.1241" height="23.9793" filterUnits="userSpaceOnUse" color-interpolation-filters="sRGB">
<feFlood flood-opacity="0" result="BackgroundImageFix"/>
<feColorMatrix in="SourceAlpha" type="matrix" values="0 0 0 0 0 0 0 0 0 0 0 0 0 0 0 0 0 0 127 0" result="hardAlpha"/>
<feOffset dy="1"/>
<feGaussianBlur stdDeviation="1"/>
<feComposite in2="hardAlpha" operator="out"/>
<feColorMatrix type="matrix" values="0 0 0 0 0 0 0 0 0 0 0 0 0 0 0 0 0 0 0.08 0"/>
<feBlend mode="normal" in2="BackgroundImageFix" result="effect1_dropShadow_4_42"/>
<feBlend mode="normal" in="SourceGraphic" in2="effect1_dropShadow_4_42" result="shape"/>
</filter>
</defs>
</svg>
