<svg width="1512" height="484" viewBox="0 0 1512 484" fill="none" xmlns="http://www.w3.org/2000/svg">
<path d="M1355.01 169.037C1355.28 165.335 1360.72 165.335 1360.99 169.037L1363.55 203.281C1363.74 205.806 1366.78 206.976 1368.61 205.229L1392.85 182.137C1395.52 179.6 1399.53 183.162 1397.32 186.108L1375.74 214.928C1374.34 216.803 1375.53 219.491 1377.86 219.713L1412.58 223.013C1416.2 223.358 1416.2 228.642 1412.58 228.987L1377.86 232.287C1375.53 232.509 1374.34 235.197 1375.74 237.072L1397.32 265.892C1399.53 268.838 1395.52 272.4 1392.85 269.863L1368.61 246.771C1366.78 245.024 1363.74 246.194 1363.55 248.719L1360.99 282.963C1360.72 286.665 1355.28 286.665 1355.01 282.963L1352.45 248.719C1352.26 246.194 1349.22 245.024 1347.39 246.771L1323.15 269.863C1320.48 272.4 1316.47 268.838 1318.68 265.892L1340.26 237.072C1341.66 235.197 1340.47 232.509 1338.14 232.287L1303.42 228.987C1299.8 228.642 1299.8 223.358 1303.42 223.013L1338.14 219.713C1340.47 219.491 1341.66 216.803 1340.26 214.928L1318.68 186.108C1316.47 183.162 1320.48 179.6 1323.15 182.137L1347.39 205.229C1349.22 206.976 1352.26 205.806 1352.45 203.281L1355.01 169.037Z" fill="#A0CBAD"/>
<path d="M1119.3 313.787C1119.75 310.304 1124.79 310.304 1125.25 313.787L1129.72 348.088C1129.89 349.376 1130.87 350.41 1132.15 350.649L1163.75 356.551C1167.02 357.161 1167.02 361.839 1163.75 362.449L1132.15 368.351C1130.87 368.59 1129.89 369.624 1129.72 370.912L1125.25 405.213C1124.79 408.696 1119.75 408.696 1119.3 405.213L1114.82 370.912C1114.65 369.624 1113.67 368.59 1112.39 368.351L1080.79 362.449C1077.52 361.839 1077.52 357.161 1080.79 356.551L1112.39 350.649C1113.67 350.41 1114.65 349.376 1114.82 348.088L1119.3 313.787Z" fill="#FCC560"/>
<path d="M751.182 212.366C752.537 207.481 759.463 207.481 760.818 212.366L779.251 278.804C779.98 281.431 782.68 282.99 785.32 282.308L855.943 264.057C860.996 262.751 864.419 269.087 860.558 272.597L809.196 319.301C807.015 321.284 807.015 324.716 809.196 326.699L860.558 373.403C864.419 376.913 860.996 383.249 855.943 381.943L785.32 363.692C782.68 363.01 779.98 364.569 779.251 367.196L760.818 433.634C759.463 438.519 752.537 438.519 751.182 433.634L732.749 367.196C732.02 364.569 729.32 363.01 726.68 363.692L656.057 381.943C651.004 383.249 647.581 376.913 651.442 373.403L702.804 326.699C704.985 324.716 704.985 321.284 702.804 319.301L651.442 272.597C647.581 269.087 651.004 262.751 656.057 264.057L726.68 282.308C729.32 282.99 732.02 281.431 732.749 278.804L751.182 212.366Z" fill="#8FB1BE"/>
<path d="M1015.01 74.0996C1015.23 71.6723 1018.77 71.6723 1018.99 74.0996L1022.61 114.201C1022.71 115.394 1023.84 116.225 1025.01 115.978L1066.76 107.164C1069.19 106.651 1070.19 110.144 1067.86 110.998L1028.83 125.305C1027.6 125.756 1027.13 127.246 1027.87 128.322L1050.74 161.322C1052.14 163.341 1049.37 165.617 1047.66 163.853L1018.44 133.705C1017.65 132.894 1016.35 132.894 1015.56 133.705L986.343 163.853C984.633 165.617 981.864 163.341 983.263 161.322L1006.13 128.322C1006.87 127.246 1006.4 125.756 1005.17 125.305L966.138 110.998C963.807 110.144 964.811 106.651 967.239 107.164L1008.99 115.978C1010.16 116.225 1011.29 115.394 1011.39 114.201L1015.01 74.0996Z" fill="#D53302"/>
<path d="M3.73489 26.3238C4.70396 22.2406 10.5142 22.2406 11.4833 26.3238L19.7078 60.9776C20.2891 63.4266 22.9685 64.7286 25.2531 63.6723L58.483 48.308C62.3378 46.5257 65.9319 51.2099 63.2124 54.472L40.6503 81.5351C38.972 83.5482 39.6627 86.6055 42.0432 87.7017L74.5395 102.665C78.421 104.453 77.1442 110.267 72.871 110.264L36.4869 110.236C33.9121 110.234 32.0124 112.639 32.6112 115.144L40.7867 149.337C41.7663 153.434 36.5438 156.048 33.8516 152.808L10.6716 124.912C9.07947 122.996 6.13872 122.996 4.54659 124.912L-18.6334 152.808C-21.3256 156.048 -26.5481 153.434 -25.5686 149.337L-17.393 115.144C-16.7943 112.639 -18.6939 110.234 -21.2687 110.236L-57.6529 110.264C-61.9261 110.267 -63.2028 104.453 -59.3214 102.665L-26.825 87.7017C-24.4445 86.6055 -23.7538 83.5482 -25.4321 81.5351L-47.9942 54.472C-50.7138 51.2099 -47.1196 46.5257 -43.2648 48.308L-10.0349 63.6723C-7.75027 64.7286 -5.0709 63.4266 -4.48966 60.9776L3.73489 26.3238Z" fill="#A0CBAD"/>
<path d="M122.791 268L128.196 297.156L149.706 276.745L136.941 303.51L166.341 299.641L140.281 313.791L166.341 327.941L136.941 324.072L149.706 350.837L128.196 330.425L122.791 359.582L117.386 330.425L95.8757 350.837L108.641 324.072L79.2412 327.941L105.3 313.791L79.2412 299.641L108.641 303.51L95.8757 276.745L117.386 297.156L122.791 268Z" fill="#D53302"/>
<path d="M370.892 122.647C371.158 121.503 372.787 121.503 373.053 122.647L384.66 172.575C384.805 173.199 385.446 173.57 386.06 173.386L437.173 158.024C438.317 157.681 439.122 159.138 438.222 159.923L398.842 194.254C398.335 194.696 398.335 195.484 398.842 195.926L438.222 230.257C439.122 231.042 438.317 232.499 437.173 232.155L386.06 216.794C385.446 216.61 384.805 216.981 384.66 217.605L373.053 267.533C372.787 268.677 371.158 268.677 370.892 267.533L359.284 217.605C359.139 216.981 358.498 216.61 357.885 216.794L306.771 232.155C305.628 232.499 304.823 231.042 305.723 230.257L345.102 195.926C345.609 195.484 345.609 194.696 345.102 194.254L305.723 159.923C304.823 159.138 305.628 157.681 306.771 158.024L357.885 173.386C358.498 173.57 359.139 173.199 359.284 172.575L370.892 122.647Z" fill="#FCC560"/>
<path d="M200.85 415.616C201.103 413.685 203.897 413.685 204.15 415.616L206.868 436.399C206.961 437.114 207.504 437.687 208.213 437.819L227.227 441.364C229.039 441.702 229.039 444.298 227.227 444.636L208.213 448.181C207.504 448.313 206.961 448.886 206.868 449.601L204.15 470.384C203.897 472.315 201.103 472.315 200.85 470.384L198.132 449.601C198.039 448.886 197.496 448.313 196.787 448.181L177.773 444.636C175.961 444.298 175.961 441.702 177.773 441.364L196.787 437.819C197.496 437.687 198.039 437.114 198.132 436.399L200.85 415.616Z" fill="#FCC560"/>
<path d="M1499.79 0L1505.2 29.1564L1526.71 8.74529L1513.94 35.5102L1543.34 31.6407L1517.28 45.7909L1543.34 59.9411L1513.94 56.0716L1526.71 82.8365L1505.2 62.4254L1499.79 91.5818L1494.39 62.4254L1472.88 82.8365L1485.64 56.0716L1456.24 59.9411L1482.3 45.7909L1456.24 31.6407L1485.64 35.5102L1472.88 8.74529L1494.39 29.1564L1499.79 0Z" fill="#FCC560"/>
<path d="M485.284 425.822C485.625 424.114 488.066 424.114 488.407 425.822L490.016 433.877C490.273 435.163 491.887 435.605 492.763 434.629L498.34 428.419C499.508 427.119 501.614 428.376 501.024 430.021L498.316 437.566C497.867 438.817 499.059 440.036 500.32 439.615L508.169 436.993C509.838 436.436 511.045 438.598 509.695 439.726L503.597 444.822C502.563 445.686 503.003 447.364 504.328 447.61L512.265 449.085C514 449.408 514 451.894 512.265 452.217L504.328 453.692C503.003 453.938 502.563 455.616 503.597 456.48L509.695 461.576C511.045 462.704 509.838 464.866 508.169 464.309L500.32 461.687C499.059 461.266 497.867 462.484 498.316 463.736L501.024 471.281C501.614 472.926 499.508 474.183 498.34 472.883L492.763 466.673C491.887 465.697 490.273 466.139 490.016 467.425L488.407 475.48C488.066 477.188 485.625 477.188 485.284 475.48L483.675 467.425C483.418 466.139 481.804 465.697 480.928 466.673L475.351 472.883C474.183 474.183 472.077 472.926 472.667 471.281L475.375 463.736C475.824 462.484 474.632 461.266 473.371 461.687L465.522 464.309C463.853 464.866 462.646 462.704 463.996 461.576L470.094 456.48C471.127 455.616 470.688 453.938 469.363 453.692L461.426 452.217C459.691 451.894 459.691 449.408 461.426 449.085L469.363 447.61C470.688 447.364 471.127 445.686 470.094 444.822L463.996 439.726C462.646 438.598 463.853 436.436 465.522 436.993L473.371 439.615C474.632 440.036 475.824 438.817 475.375 437.566L472.667 430.021C472.077 428.376 474.183 427.119 475.351 428.419L480.928 434.629C481.804 435.605 483.418 435.163 483.675 433.877L485.284 425.822Z" fill="#A0CBAD"/>
<path d="M1507.73 319.324C1508.7 315.241 1514.51 315.241 1515.48 319.324L1523.71 353.978C1524.29 356.427 1526.97 357.729 1529.25 356.672L1562.48 341.308C1566.34 339.526 1569.93 344.21 1567.21 347.472L1544.65 374.535C1542.97 376.548 1543.66 379.605 1546.04 380.702L1578.54 395.665C1582.42 397.453 1581.14 403.267 1576.87 403.264L1540.49 403.236C1537.91 403.234 1536.01 405.639 1536.61 408.144L1544.79 442.337C1545.77 446.434 1540.54 449.048 1537.85 445.808L1514.67 417.912C1513.08 415.996 1510.14 415.996 1508.55 417.912L1485.37 445.808C1482.67 449.048 1477.45 446.434 1478.43 442.337L1486.61 408.144C1487.21 405.639 1485.31 403.234 1482.73 403.236L1446.35 403.264C1442.07 403.267 1440.8 397.453 1444.68 395.665L1477.17 380.702C1479.56 379.605 1480.25 376.548 1478.57 374.535L1456.01 347.472C1453.29 344.21 1456.88 339.526 1460.74 341.308L1493.97 356.672C1496.25 357.729 1498.93 356.427 1499.51 353.978L1507.73 319.324Z" fill="#8FB1BE"/>
</svg>
